<?xml version="1.0" standalone="no"?>
<!DOCTYPE svg PUBLIC "-//W3C//DTD SVG 20010904//EN"
 "http://www.w3.org/TR/2001/REC-SVG-20010904/DTD/svg10.dtd">
<svg version="1.0" xmlns="http://www.w3.org/2000/svg"
 width="918.000000pt" height="248.000000pt" viewBox="0 0 918.000000 248.000000"
 preserveAspectRatio="xMidYMid meet">

<g transform="translate(0.000000,248.000000) scale(0.100000,-0.100000)"
fill="#2863bc" stroke="none">
<path d="M5855 2156 c-16 -7 -41 -26 -55 -41 l-25 -27 0 -873 0 -873 25 -27
c53 -58 -21 -55 1402 -55 1230 0 1315 1 1347 18 19 9 44 30 55 45 21 28 21 34
21 892 0 858 0 864 -21 892 -11 15 -36 36 -55 45 -32 17 -116 18 -1349 18
-1074 -1 -1321 -3 -1345 -14z m2335 -626 l0 -120 90 0 90 0 0 -85 0 -85 -91 0
-90 0 3 -206 3 -206 29 -25 c24 -21 37 -24 70 -20 23 3 49 8 59 12 15 6 17 -1
17 -74 0 -102 -5 -106 -150 -106 -90 0 -111 3 -147 22 -97 52 -113 107 -113
390 l0 213 -65 0 -65 0 0 85 0 85 65 0 65 0 0 88 0 87 108 32 c59 17 110 32
115 32 4 1 7 -53 7 -119z m-1607 -130 c72 -27 168 -117 196 -183 73 -171 37
-384 -86 -498 -81 -76 -174 -109 -307 -109 -169 0 -311 83 -374 218 -24 52
-26 68 -27 187 0 122 2 134 28 190 49 106 142 180 262 212 75 19 236 11 308
-17z m609 -257 c3 -303 7 -321 76 -350 73 -30 150 -1 183 70 17 38 19 68 19
295 l0 252 115 0 115 0 0 -390 0 -390 -115 0 -115 0 0 52 0 52 -35 -37 c-59
-62 -107 -82 -205 -82 -72 0 -93 4 -135 26 -29 14 -61 42 -77 65 -50 72 -58
130 -58 431 l0 273 114 0 115 0 3 -267z"/>
<path d="M6325 1246 c-78 -35 -110 -105 -110 -236 1 -87 3 -101 29 -144 36
-62 94 -90 173 -84 101 9 152 76 160 212 9 136 -29 225 -110 255 -38 15 -106
13 -142 -3z"/>
<path d="M1443 1830 c-145 -65 -90 -280 71 -280 138 0 212 146 124 246 -48 54
-122 67 -195 34z"/>
<path d="M470 1185 l0 -615 395 0 395 0 0 130 0 130 -255 0 -255 0 0 485 0
485 -140 0 -140 0 0 -615z"/>
<path d="M2787 1793 c-4 -3 -7 -280 -7 -615 l0 -608 145 0 145 0 0 141 0 140
34 45 34 45 84 -138 c47 -76 97 -159 112 -185 l28 -48 175 0 175 0 -14 23 c-9
12 -92 132 -187 266 -146 208 -169 246 -159 260 7 9 74 83 148 166 74 82 141
158 149 168 13 16 4 17 -156 17 l-170 0 -124 -175 -124 -176 -3 341 -2 340
-138 0 c-76 0 -142 -3 -145 -7z"/>
<path d="M5190 1595 l0 -204 -25 25 c-81 81 -257 95 -390 33 -104 -49 -198
-173 -224 -297 -15 -72 -14 -226 3 -287 33 -125 109 -223 212 -276 64 -32 74
-34 163 -34 84 1 103 4 153 28 32 16 74 48 96 73 37 42 40 43 46 22 3 -13 6
-42 6 -65 l0 -43 128 0 127 0 -3 615 -2 615 -145 0 -145 0 0 -205z m-128 -325
c44 -13 93 -52 113 -91 18 -34 21 -252 4 -296 -5 -15 -22 -41 -37 -57 -96
-103 -255 -56 -303 89 -16 50 -16 156 0 213 12 44 59 105 95 124 17 9 53 21
86 27 3 0 22 -4 42 -9z"/>
<path d="M3985 1484 c-125 -31 -209 -82 -271 -166 -78 -106 -108 -231 -93
-381 19 -187 138 -320 329 -368 106 -27 358 -11 462 30 24 9 26 12 17 48 -4
21 -13 63 -19 94 l-11 56 -52 -15 c-85 -23 -244 -27 -310 -8 -61 18 -110 53
-132 97 -32 61 -44 59 279 59 l294 0 7 59 c16 142 -39 314 -127 397 -76 71
-143 97 -257 100 -53 2 -105 1 -116 -2z m165 -202 c31 -22 70 -97 70 -134 l0
-28 -165 0 c-163 0 -165 0 -165 22 0 28 35 100 60 123 50 45 148 54 200 17z"/>
<path d="M2221 1433 c-26 -9 -65 -36 -93 -64 l-48 -48 0 54 0 55 -145 0 -145
0 0 -430 0 -430 145 0 145 0 0 273 0 274 30 41 c16 23 37 45 47 51 71 38 160
14 196 -53 21 -39 22 -55 25 -313 l3 -273 140 0 140 0 -3 318 -3 317 -29 63
c-36 78 -104 142 -176 165 -64 21 -170 21 -229 0z"/>
<path d="M1370 1000 l0 -430 145 0 145 0 0 430 0 430 -145 0 -145 0 0 -430z"/>
</g>
</svg>
