<?xml version="1.0" standalone="no"?>
<!DOCTYPE svg PUBLIC "-//W3C//DTD SVG 20010904//EN"
 "http://www.w3.org/TR/2001/REC-SVG-20010904/DTD/svg10.dtd">
<svg version="1.0" xmlns="http://www.w3.org/2000/svg"
 width="376.000000pt" height="252.000000pt" viewBox="0 0 376.000000 252.000000"
 preserveAspectRatio="xMidYMid meet">

<g transform="translate(0.000000,252.000000) scale(0.100000,-0.100000)"
fill="#006699" stroke="none">
<path d="M63 2476 l-48 -44 0 -1148 0 -1149 23 -33 c13 -18 42 -42 65 -55 l42
-22 1725 -2 1725 -2 55 27 c44 21 60 36 78 72 l22 44 0 1113 c0 1231 4 1153
-66 1211 l-39 32 -1766 0 -1767 0 -49 -44z m3117 -781 l0 -155 104 0 c57 0
111 -3 120 -6 13 -5 16 -25 16 -115 l0 -109 -120 0 -120 0 0 -232 c0 -128 5
-251 10 -273 5 -25 21 -51 41 -69 30 -26 37 -28 88 -23 31 3 66 9 79 13 22 6
22 5 22 -92 0 -55 -4 -104 -8 -109 -22 -30 -68 -40 -191 -40 -116 0 -131 2
-181 26 -67 32 -101 68 -132 134 -22 48 -23 61 -26 358 l-3 307 -85 0 -85 0 3
113 3 112 83 3 82 3 0 112 0 112 58 17 c31 10 77 23 102 30 53 14 51 13 70 21
73 28 70 34 70 -138z m-2200 -146 c35 -5 69 -14 75 -18 5 -5 21 -12 35 -16 77
-24 193 -133 235 -222 92 -196 66 -466 -60 -620 -70 -86 -128 -126 -235 -165
-58 -20 -82 -23 -215 -22 -121 0 -156 4 -180 17 -16 9 -36 17 -43 17 -29 0
-120 58 -172 110 -106 107 -145 225 -137 420 5 127 15 170 67 269 19 38 104
124 155 158 41 27 141 66 190 74 64 11 215 10 285 -2z m890 -359 c5 -344 5
-345 30 -394 34 -67 74 -88 156 -84 76 5 126 39 158 107 20 43 21 66 26 381
l5 335 148 3 147 3 0 -516 0 -515 -150 0 -150 0 0 67 0 67 -49 -51 c-28 -29
-75 -64 -108 -80 -52 -25 -68 -28 -163 -28 -93 0 -111 3 -160 26 -97 46 -152
122 -179 247 -7 34 -11 184 -11 418 l0 365 148 -3 147 -3 5 -345z"/>
<path d="M748 1320 c-47 -14 -97 -61 -124 -117 -22 -44 -28 -73 -32 -151 -8
-164 26 -258 112 -311 41 -26 122 -37 191 -27 37 6 56 17 90 51 54 54 76 117
82 242 4 76 2 103 -17 160 -25 79 -75 138 -130 153 -41 12 -134 12 -172 0z"/>
</g>
</svg>
